<?xml version="1.0" encoding="UTF-8" standalone="no"?>

<svg
   width="135.46666mm"
   height="135.46666mm"
   viewBox="0 0 135.46666 135.46666"
   xmlns="http://www.w3.org/2000/svg"
   ><g>
      <path
         style="fill:#e2e2e2;stroke-width:0.264583"
         d="M 44.034359,129.33814 V 61.604813 h 67.733331 67.73333 v 67.733327 67.73333 H 111.76769 44.034359 Z m 74.669011,58.27448 c 3.59535,-2.43747 9.01093,-6.09865 12.03461,-8.13594 7.07776,-4.76883 24.13753,-16.55872 25.94989,-17.93378 2.69956,-2.04819 4.99448,-5.89764 5.71298,-9.58288 0.21358,-1.09545 0.25558,-3.30969 0.13551,-7.14375 -0.0957,-3.05594 -0.1894,-12.40235 -0.20822,-20.76979 -0.0373,-16.57785 -0.10841,-17.51529 -1.53119,-20.18252 -0.40516,-0.75957 -1.39661,-2.03587 -2.2032,-2.83623 -1.46041,-1.449136 -2.57157,-2.1855 -21.95523,-14.549611 -5.16599,-3.295192 -12.76429,-8.156125 -16.88512,-10.802074 -4.12083,-2.645948 -7.60899,-4.810816 -7.75149,-4.810816 -0.14248,0 -2.12871,1.233439 -4.41383,2.740975 -3.57051,2.355531 -14.935978,9.709629 -23.337056,15.100389 -1.382448,0.887082 -5.953691,3.754345 -10.15832,6.371693 -8.231191,5.123854 -9.802139,6.388244 -11.181548,8.999574 -1.894019,3.58552 -1.79056,2.17311 -1.881833,25.69072 -0.08936,23.02442 -0.07462,23.30844 1.366887,26.33412 1.450272,3.04409 2.840291,4.2916 10.610023,9.52225 10.078997,6.78526 34.063347,23.23698 36.644787,25.13596 0.94589,0.69582 1.89879,1.26926 2.11757,1.2743 0.21877,0.005 3.33943,-1.98512 6.93478,-4.42259 z m -9.08971,-30.87905 c -0.46294,-0.73368 -2.5888,-4.19147 -4.72412,-7.68397 -8.078437,-13.21294 -10.031218,-16.31764 -14.228639,-22.62187 -2.373786,-3.56526 -4.380759,-6.74009 -4.459938,-7.05518 -0.273367,-1.08783 0.674494,-2.32036 3.934134,-5.11566 1.781787,-1.52796 5.0237,-4.38546 7.20425,-6.35 9.593983,-8.643536 13.869423,-12.170829 14.752303,-12.170829 0.19878,0 2.02382,1.518047 4.05565,3.373438 3.92845,3.587331 14.45165,12.595311 17.97768,15.389101 2.40161,1.90287 3.57187,3.12199 3.57187,3.72097 0,0.22593 -0.25406,0.88527 -0.5646,1.4652 -1.07458,2.00685 -18.60223,30.57208 -22.00327,35.48426 -2.65524,4.10472 -2.65524,4.10472 -5.51532,1.56454 z"/>
      <path
         style="fill:#e3314c;stroke-width:0.264583"
         d="m 157.80515,160.42668 c 0.34177,-0.3638 0.68094,-0.66146 0.7537,-0.66146 0.0728,0 -0.14734,0.29766 -0.48912,0.66146 -0.34178,0.36381 -0.68094,0.66146 -0.7537,0.66146 -0.0728,0 0.14734,-0.29765 0.48912,-0.66146 z m -57.811459,-0.27376 c -2.009238,-0.44668 -4.887378,-1.53265 -6.458502,-2.4369 -1.963251,-1.12993 -10.478175,-7.21109 -12.572976,-8.97933 -0.571897,-0.48274 -1.329888,-0.87771 -1.684425,-0.87771 -0.600154,0 -7.245212,3.83127 -9.774956,5.63585 -1.068817,0.76243 -1.145977,0.77885 -1.624655,0.34565 -0.764844,-0.69217 -2.08308,-3.32509 -2.536648,-5.06646 -0.562207,-2.15845 -0.602424,-34.68106 -0.04547,-36.76608 0.917967,-3.43649 2.074139,-4.58288 8.928434,-8.85289 11.435937,-7.124224 18.646253,-11.661799 22.858777,-14.38542 2.473854,-1.599476 6.68689,-4.325501 9.3623,-6.057832 2.70692,-1.752738 4.96508,-3.048988 5.09143,-2.922636 0.12488,0.12488 0.3032,3.615192 0.39628,7.756248 -0.28216,1.334137 0.44893,7.971128 0.40583,8.278374 -0.95676,-0.250198 -4.29646,2.440098 -14.999808,12.083106 -2.18055,1.96454 -5.422463,4.82204 -7.20425,6.35 -3.25964,2.7953 -4.207501,4.02783 -3.934134,5.11566 0.07918,0.31509 2.086152,3.48992 4.459938,7.05518 7.183768,11.02759 18.326824,27.60641 21.812884,32.84602 -3.62816,0.58645 -6.01146,3.62607 -12.480054,0.87953 z m 62.381439,-18.37936 c 0,-0.65484 0.0516,-0.92274 0.11466,-0.59531 0.0631,0.32742 0.0631,0.8632 0,1.19062 -0.0631,0.32742 -0.11466,0.0595 -0.11466,-0.59531 z M 60.98858,110.39839 c 0.01269,-0.30823 0.07539,-0.37092 0.159852,-0.15986 0.07643,0.191 0.06703,0.4192 -0.02089,0.50712 -0.08792,0.0879 -0.150453,-0.0683 -0.138964,-0.34726 z m 101.10152,-1.30087 c 0.005,-0.43656 0.0647,-0.58313 0.13177,-0.3257 0.0671,0.25744 0.0627,0.61462 -0.01,0.79375 -0.0725,0.17914 -0.12737,-0.0315 -0.12197,-0.46805 z m -3.50541,-8.00365 -0.91179,-0.99218 0.99218,0.9118 c 0.54571,0.50148 0.99219,0.94797 0.99219,0.99218 0,0.20204 -0.2239,0.0117 -1.07258,-0.9118 z m -93.648249,0.0662 c 0.341774,-0.3638 0.680939,-0.66146 0.7537,-0.66146 0.07276,0 -0.147342,0.29766 -0.489116,0.66146 -0.341775,0.3638 -0.680939,0.66146 -0.7537,0.66146 -0.07276,0 0.147342,-0.29766 0.489116,-0.66146 z"/>
      <path
         style="fill:#132054;stroke:#06163c;stroke-width:0.264583;stroke-opacity:1"
         d="m 109.08995,190.28671 c -4.44002,-3.14476 -30.637855,-21.0856 -37.280168,-25.53027 -5.670305,-3.79425 -7.976355,-5.90489 -9.211376,-8.4308 -1.665656,-3.40666 -1.666576,-3.42226 -1.566923,-26.57056 0.08157,-18.94816 0.133559,-21.07005 0.551013,-22.48984 0.624623,-2.12437 1.652003,-3.948 3.147685,-5.58723 1.465907,-1.6066 2.005078,-1.97943 10.52501,-7.277986 7.527329,-4.681254 25.961219,-16.499253 32.234089,-20.665334 2.37631,-1.578203 4.40037,-2.866361 4.49792,-2.862573 0.18587,0.0072 4.19563,2.544863 14.26574,9.028324 3.31098,2.131711 8.63933,5.536942 11.84079,7.56718 21.59901,13.697239 21.89924,13.932369 23.45358,18.367929 0.58086,1.65757 0.58879,1.89472 0.78585,23.50259 0.1926,21.11923 0.18237,21.89085 -0.31513,23.75937 -0.7176,2.69519 -1.82819,4.7606 -3.57345,6.64569 -1.37918,1.48967 -5.58413,4.50437 -22.7321,16.29755 -7.03497,4.83816 -23.71981,16.00364 -23.91461,16.00364 -0.12445,0 -1.34301,-0.79096 -2.70792,-1.75768 z m 5.63607,-0.56 c 1.4088,-0.98085 4.80208,-3.29112 7.54062,-5.13393 21.0183,-14.14355 34.55307,-23.61052 35.90445,-25.11358 1.4041,-1.5617 2.97148,-4.4953 3.40453,-6.37214 0.39263,-1.70164 0.3065,-42.66618 -0.0956,-45.46475 -0.55116,-3.83609 -2.6354,-6.41265 -7.81736,-9.663918 -1.57791,-0.990021 -4.35722,-2.771857 -6.17623,-3.95964 -3.03794,-1.983719 -19.01448,-12.190063 -22.54436,-14.402078 -0.83048,-0.52043 -3.97588,-2.53523 -6.98977,-4.477332 -3.01389,-1.942102 -5.61717,-3.583811 -5.78508,-3.648243 -0.16791,-0.06443 -2.79704,1.529504 -5.84252,3.542078 -3.04547,2.012575 -6.754233,4.428191 -8.241683,5.368035 -1.487448,0.939845 -4.724392,3.018496 -7.193208,4.619225 -4.117242,2.669534 -8.10787,5.219983 -13.06391,8.349276 -1.050092,0.663038 -3.921601,2.448975 -6.381128,3.96875 -5.179476,3.200467 -7.102172,4.909727 -8.316645,7.393427 -1.620542,3.31416 -1.622084,3.33893 -1.622149,26.06146 -5.6e-5,19.22336 0.03348,20.76659 0.489345,22.52134 1.129379,4.34728 2.86546,6.26568 9.952567,10.99776 2.764896,1.84613 6.872552,4.63201 9.128125,6.19085 2.255573,1.55884 6.660885,4.57334 9.789583,6.69889 9.111794,6.19029 12.778563,8.71152 16.872103,11.60105 2.1131,1.49159 3.97359,2.71082 4.13443,2.70941 0.16083,-0.001 1.44508,-0.80509 2.85388,-1.78594 z m -3.22291,-5.57736 c 0,-0.28681 -3.03117,-2.64348 -3.78754,-2.94474 -0.31795,-0.12664 -1.352,-0.75525 -2.29788,-1.39692 -2.00221,-1.35826 -4.76701,-3.19232 -6.397017,-4.24354 -0.628983,-0.40564 -1.67939,-1.1449 -2.334233,-1.6428 -0.654844,-0.49789 -1.845469,-1.29097 -2.645833,-1.76239 -0.800365,-0.47143 -2.288646,-1.4704 -3.307292,-2.21994 -1.018646,-0.74954 -2.209271,-1.54715 -2.645833,-1.77247 -0.436563,-0.22533 -1.478637,-0.92788 -2.315723,-1.56123 -0.837086,-0.63336 -2.265836,-1.65998 -3.175,-2.28139 -0.909164,-0.62141 -2.069746,-1.41804 -2.579068,-1.77029 -0.509323,-0.35225 -2.473854,-1.69696 -4.365625,-2.98825 -1.891771,-1.29128 -3.987903,-2.72388 -4.658072,-3.18355 -0.670169,-0.45967 -1.369357,-1.01755 -1.553751,-1.23973 -0.184394,-0.22218 -0.536533,-0.40397 -0.782531,-0.40397 -1.241033,0 -3.300954,-3.67683 -3.825698,-6.82863 -0.434407,-2.60921 -0.315038,-34.47609 0.13541,-36.14893 0.450191,-1.67188 1.419475,-3.36975 2.525845,-4.42446 0.849726,-0.81005 4.441314,-3.25384 7.934954,-5.3991 8.509722,-5.225374 14.079592,-8.710812 18.365675,-11.492625 1.905799,-1.236927 4.04136,-2.606146 4.745691,-3.042708 0.704334,-0.436563 2.006871,-1.27 2.894531,-1.852084 7.20375,-4.723863 9.95299,-6.482291 10.13486,-6.482291 0.52378,0 0.7032,1.673531 0.74252,6.926251 0.0232,3.102801 0.0793,5.998644 0.12459,6.435207 0.0453,0.436562 0.092,1.230908 0.10385,1.76521 0.0203,0.9193 0.303,1.224727 5.26439,5.688541 5.5038,4.951819 12.70145,11.145979 14.97769,12.889499 2.12976,1.63134 4.65469,3.89151 5.09066,4.5569 0.26225,0.40023 0.34001,0.88426 0.22569,1.40476 -0.0959,0.43677 -1.60985,3.03122 -3.36426,5.76544 -1.75441,2.73423 -4.44381,6.93585 -5.97643,9.33694 -3.53971,5.54548 -6.16683,9.55969 -11.77477,17.99167 l -4.48722,6.74687 0.12568,8.93429 c 0.0691,4.91386 0.18935,8.99798 0.26719,9.07581 0.0778,0.0778 0.48256,-0.17719 0.89939,-0.56673 0.41682,-0.38953 1.65083,-1.28678 2.74224,-1.99387 1.0914,-0.70709 2.75828,-1.82849 3.70417,-2.492 2.06875,-1.45116 1.92155,-1.35298 7.54062,-5.02979 4.29637,-2.81131 5.39281,-3.53382 8.99583,-5.92789 3.05386,-2.02916 5.72147,-3.86056 7.15226,-4.91024 0.79342,-0.58208 1.79366,-1.29645 2.22275,-1.5875 5.52468,-3.74725 7.98565,-6.19267 8.78679,-8.73125 0.29389,-0.93126 0.28033,-17.15502 -0.0238,-28.4427 -0.18913,-7.02012 -0.26669,-7.95051 -0.77109,-9.24973 -0.30845,-0.79449 -0.47266,-1.53067 -0.36492,-1.63596 0.50274,-0.49129 3.01385,2.50165 3.5835,4.2711 1.1289,3.50664 1.11032,3.15233 1.11032,21.16667 0,16.18464 -0.0332,17.45264 -0.50157,19.18229 -0.85188,3.14563 -2.07434,4.73912 -5.34607,6.96866 -5.67675,3.86845 -7.4592,5.07358 -8.86826,5.99592 -3.06813,2.00834 -6.01096,3.97293 -7.92658,5.29167 -1.05693,0.7276 -2.64553,1.72564 -3.53023,2.21785 -0.8847,0.49221 -2.27817,1.38518 -3.09661,1.98437 -0.81843,0.5992 -2.36625,1.65765 -3.43958,2.35212 -1.07334,0.69448 -2.96355,1.97884 -4.20048,2.85414 -1.23692,0.8753 -2.54279,1.713 -2.90192,1.86155 -0.35914,0.14855 -1.13304,0.65458 -1.7198,1.12453 -0.58675,0.46994 -1.75143,1.26208 -2.58817,1.76032 -0.83675,0.49824 -1.52136,0.99979 -1.52136,1.11456 0,0.11478 -0.29765,0.20868 -0.66146,0.20868 -0.3638,0 -0.66145,-0.0999 -0.66145,-0.22212 z m 0.99258,-25.57475 c 0.91468,-1.64259 1.71441,-3.31391 2.7451,-4.92749 3.92075,-6.13807 8.5695,-12.95301 12.54259,-19.14959 1.77278,-2.7649 4.67265,-7.28305 6.44415,-10.04035 1.7715,-2.75729 3.2951,-5.30888 3.38579,-5.67021 0.26011,-1.03634 -0.384,-1.84878 -3.36349,-4.24253 -6.12814,-4.92338 -16.65247,-14.02982 -20.38893,-17.642017 l -1.74323,-1.685255 -0.17523,-7.598906 c -0.0964,-4.179398 -0.27812,-7.701785 -0.40386,-7.827526 -0.12843,-0.128437 -2.36021,1.151589 -5.09299,2.921072 -2.67541,1.732331 -6.888441,4.458356 -9.362295,6.057832 -4.212524,2.723621 -11.42284,7.261196 -22.858777,14.38542 -6.854295,4.27001 -8.010467,5.4164 -8.928434,8.85289 -0.556959,2.08502 -0.516742,34.60763 0.04547,36.76608 0.453568,1.74137 1.771804,4.37429 2.536648,5.06646 0.478678,0.4332 0.555838,0.41678 1.624655,-0.34565 2.529744,-1.80458 9.174802,-5.63585 9.774956,-5.63585 0.354537,0 1.112528,0.39497 1.684425,0.87771 2.106247,1.7779 10.611527,7.8503 12.594634,8.99203 6.185897,3.37506 13.644548,3.27845 18.938818,0.84588 z"/>
      <path
         style="fill:#06163c;stroke:#06163c;stroke-width:0.264583;stroke-opacity:1"
         d="m 107.73771,188.80324 c -4.09354,-2.88953 -7.760309,-5.41076 -16.872103,-11.60105 -3.128698,-2.12555 -7.53401,-5.14005 -9.789583,-6.69889 -2.255573,-1.55884 -6.363229,-4.34472 -9.128125,-6.19085 -7.087107,-4.73208 -8.823188,-6.65048 -9.952567,-10.99776 -0.45587,-1.75475 -0.489401,-3.29798 -0.489345,-22.52134 6.5e-5,-22.72253 0.0016,-22.7473 1.622149,-26.06146 1.214473,-2.4837 3.137169,-4.19296 8.316645,-7.393427 2.459527,-1.519775 5.331036,-3.305712 6.381128,-3.96875 4.95604,-3.129293 8.946668,-5.679742 13.06391,-8.349276 2.468816,-1.600729 5.70576,-3.67938 7.193208,-4.619225 1.48745,-0.939844 5.196213,-3.35546 8.241683,-5.368035 3.04548,-2.012574 5.67461,-3.60651 5.84252,-3.542078 0.16791,0.06443 2.77119,1.706141 5.78508,3.648243 3.01389,1.942102 6.15929,3.956902 6.98977,4.477332 3.52988,2.212015 19.50642,12.418359 22.54436,14.402078 1.81901,1.187783 4.59832,2.969619 6.17623,3.95964 5.18196,3.251268 7.2662,5.827828 7.81736,9.663918 0.40209,2.79857 0.48822,43.76311 0.0956,45.46475 -0.43305,1.87684 -2.00043,4.81044 -3.40453,6.37214 -1.35138,1.50306 -14.88615,10.97003 -35.90445,25.11358 -2.73854,1.84281 -6.13182,4.15308 -7.54062,5.13393 -1.4088,0.98085 -2.69305,1.78452 -2.85388,1.78594 -0.16084,0.001 -2.02133,-1.21782 -4.13443,-2.70941 z m 5.08831,-4.64045 c 0,-0.11477 0.68461,-0.61632 1.52136,-1.11456 0.83674,-0.49824 2.00142,-1.29038 2.58817,-1.76032 0.58676,-0.46995 1.36066,-0.97598 1.7198,-1.12453 0.35913,-0.14855 1.66499,-0.98625 2.90192,-1.86155 1.23693,-0.8753 3.12714,-2.15966 4.20048,-2.85414 1.07333,-0.69447 2.62115,-1.75292 3.43958,-2.35212 0.81844,-0.59919 2.21191,-1.49216 3.09661,-1.98437 0.8847,-0.49221 2.4733,-1.49025 3.53023,-2.21785 1.91562,-1.31874 4.85845,-3.28333 7.92658,-5.29167 1.40906,-0.92234 3.19151,-2.12747 8.86826,-5.99592 3.27173,-2.22954 4.49419,-3.82303 5.34607,-6.96866 0.46841,-1.72965 0.50157,-2.99765 0.50157,-19.18229 0,-18.01434 0.0186,-17.66003 -1.11032,-21.16667 -0.56965,-1.76945 -3.08076,-4.76239 -3.5835,-4.2711 -0.10774,0.10529 0.0565,0.84147 0.36492,1.63596 0.5044,1.29922 0.58196,2.22961 0.77109,9.24973 0.3041,11.28768 0.31766,27.51144 0.0238,28.4427 -0.80114,2.53858 -3.26211,4.984 -8.78679,8.73125 -0.42909,0.29105 -1.42933,1.00542 -2.22275,1.5875 -1.43079,1.04968 -4.0984,2.88108 -7.15226,4.91024 -3.60302,2.39407 -4.69946,3.11658 -8.99583,5.92789 -5.61907,3.67681 -5.47187,3.57863 -7.54063,5.02979 -0.94588,0.66351 -2.61276,1.78491 -3.70416,2.492 -1.09141,0.70709 -2.32542,1.60434 -2.74224,1.99387 -0.41683,0.38954 -0.82156,0.64457 -0.89939,0.56673 -0.0778,-0.0778 -0.19807,-4.16195 -0.26719,-9.07581 l -0.12567,-8.93429 4.48722,-6.74687 c 5.60794,-8.43198 8.23506,-12.44619 11.77477,-17.99167 1.53262,-2.40109 4.22202,-6.60271 5.97643,-9.33694 1.75441,-2.73422 3.26833,-5.32867 3.36426,-5.76544 0.11432,-0.5205 0.0366,-1.00453 -0.22569,-1.40476 -0.43597,-0.66539 -2.9609,-2.92556 -5.09066,-4.5569 -2.27624,-1.74352 -9.47389,-7.93768 -14.97769,-12.889499 -4.96139,-4.463814 -5.24404,-4.769241 -5.26439,-5.688541 -0.0118,-0.534302 -0.0585,-1.328648 -0.10385,-1.76521 -0.0453,-0.436563 -0.10136,-3.332406 -0.12459,-6.435207 -0.0393,-5.25272 -0.21874,-6.926251 -0.74252,-6.926251 -0.18187,0 -2.93111,1.758428 -10.13486,6.482291 -0.88766,0.582084 -2.190197,1.415521 -2.894531,1.852084 -0.704331,0.436562 -2.839892,1.805781 -4.745691,3.042708 -4.286083,2.781813 -9.855953,6.267251 -18.365675,11.492625 -3.49364,2.14526 -7.085228,4.58905 -7.934954,5.3991 -1.10637,1.05471 -2.075654,2.75258 -2.525845,4.42446 -0.450448,1.67284 -0.569817,33.53972 -0.13541,36.14893 0.524744,3.1518 2.584665,6.82863 3.825698,6.82863 0.245998,0 0.598137,0.18179 0.782531,0.40397 0.184394,0.22218 0.883582,0.78006 1.553751,1.23973 0.670169,0.45967 2.766301,1.89227 4.658072,3.18355 1.891771,1.29129 3.856302,2.636 4.365625,2.98825 0.509322,0.35225 1.669904,1.14888 2.579068,1.77029 0.909164,0.62141 2.337914,1.64803 3.175,2.28139 0.837086,0.63335 1.87916,1.3359 2.315723,1.56123 0.436562,0.22532 1.627187,1.02293 2.645833,1.77247 1.018646,0.74954 2.506927,1.74851 3.307292,2.21994 0.800364,0.47142 1.990989,1.2645 2.645833,1.76239 0.654843,0.4979 1.70525,1.23716 2.334233,1.6428 1.630007,1.05122 4.394807,2.88528 6.397017,4.24354 0.94588,0.64167 1.97993,1.27028 2.29788,1.39692 0.75637,0.30126 3.78754,2.65793 3.78754,2.94474 0,0.12217 0.29765,0.22212 0.66145,0.22212 0.36381,0 0.66146,-0.0939 0.66146,-0.20868 z"/>
  </g>
</svg>
